<svg xmlns="http://www.w3.org/2000/svg" width="62.751" height="62.751" viewBox="0 0 62.751 62.751">
  <defs>
    <style>
      .cls-1 {
        fill: #553ba8;
      }
    </style>
  </defs>
  <g id="surface2366636" transform="translate(0 1.282)">
    <path id="Path_9715" data-name="Path 9715" class="cls-1" d="M34.068,4a30.068,30.068,0,1,0,5.577,59.61A16.873,16.873,0,0,1,36.453,46.46L34.063,39.3,29.286,53.645a1.959,1.959,0,0,1-3.759-1.093L28.839,39.3V29.569L17.694,25.6a2.088,2.088,0,0,1,1.361-3.947l9.784,3.261H39.3l9.784-3.261A2.088,2.088,0,0,1,50.443,25.6L39.3,29.569V39.3l.434,1.739A16.936,16.936,0,0,1,63.61,39.645,30.047,30.047,0,0,0,34.068,4Zm0,7.844a3.922,3.922,0,1,1-3.922,3.922A3.923,3.923,0,0,1,34.068,11.844ZM49.626,37.99l-.654,4.182c-.393.13-.914.393-1.307.523l-3.531-2.484-3.922,3.922L42.566,47.4a4.715,4.715,0,0,0-.523,1.44L37.99,49.5v5.49l4.052.654c.13.393.393.914.523,1.307l-2.354,3.529L44.133,64.4l3.531-2.352a6.4,6.4,0,0,0,1.438.523l.523,4.182h5.49l.654-4.182c.393-.13.914-.393,1.307-.523L60.608,64.4l3.922-3.922-2.484-3.4a5.487,5.487,0,0,0,.523-1.307l4.182-.784V49.5l-4.182-.654c-.13-.393-.393-.914-.523-1.307L64.4,44l-3.789-3.792-3.4,2.484a5.487,5.487,0,0,0-1.307-.523l-.784-4.182Zm2.745,10.458a3.922,3.922,0,1,1-3.922,3.922A3.853,3.853,0,0,1,52.371,48.449Zm0,0" transform="translate(-4 -5.282)"/>
  </g>
</svg>
