<svg xmlns="http://www.w3.org/2000/svg" width="56.491" height="56.491" viewBox="0 0 56.491 56.491">
    <path fill="#9c1de7" d="M31.068 4a27.068 27.068 0 1 0 5.02 53.663 15.189 15.189 0 0 1-2.873-15.44l-2.151-6.448-4.3 12.916a1.763 1.763 0 0 1-3.384-.984l2.981-11.932v-8.757l-10.033-3.57a1.88 1.88 0 0 1 1.225-3.554l8.808 2.935h9.415l8.808-2.935a1.88 1.88 0 0 1 1.225 3.554l-10.033 3.57v8.758l.391 1.565a15.246 15.246 0 0 1 21.5-1.253A27.05 27.05 0 0 0 31.068 4zm0 7.061a3.531 3.531 0 1 1-3.531 3.531 3.532 3.532 0 0 1 3.531-3.531zM45.074 34.6l-.588 3.765c-.354.117-.823.354-1.177.471L40.13 36.6l-3.53 3.53 2.119 2.942a4.244 4.244 0 0 0-.471 1.3l-3.648.588v4.94l3.648.588c.117.354.354.823.471 1.177L36.6 54.841l3.531 3.531 3.179-2.117a5.758 5.758 0 0 0 1.294.471l.471 3.765h4.942l.588-3.765c.354-.117.823-.354 1.177-.471l3.179 2.117 3.531-3.531-2.237-3.059a4.94 4.94 0 0 0 .471-1.177l3.765-.706v-4.942l-3.765-.588c-.117-.354-.354-.823-.471-1.177l2.117-3.179L54.96 36.6l-3.06 2.235a4.94 4.94 0 0 0-1.177-.471l-.707-3.764zm2.471 9.415a3.531 3.531 0 1 1-3.531 3.531 3.469 3.469 0 0 1 3.531-3.532zm0 0" transform="translate(-4 -4)"/>
</svg>
