<svg xmlns="http://www.w3.org/2000/svg" width="52.136" height="52.136" viewBox="0 0 52.136 52.136">
    <path fill="#556bff" d="M60.136 34.068a26.057 26.057 0 0 1-38.012 23.163l-9.987 2.788A3.26 3.26 0 0 1 8.122 56l2.788-9.979a26.065 26.065 0 1 1 49.226-11.953zM36.023 38.63c0-2.006.983-2.925 2.342-4.2 1.571-1.466 3.523-3.289 3.523-6.881a7.82 7.82 0 0 0-15.641 0 1.955 1.955 0 0 0 3.91 0 3.91 3.91 0 0 1 7.82 0c0 1.81-.784 2.625-2.283 4.027-1.6 1.489-3.582 3.345-3.582 7.052a1.955 1.955 0 0 0 3.91 0zm-1.955 4.562a2.607 2.607 0 1 0 2.607 2.608 2.605 2.605 0 0 0-2.607-2.608zm0 0" transform="translate(-8 -8)"/>
</svg>
