<svg xmlns="http://www.w3.org/2000/svg" width="55.722" height="46.806" viewBox="0 0 55.722 46.806">
    <path fill="#f7785d" d="M54.607 8H1.114A1.117 1.117 0 0 0 0 9.114v44.578a1.114 1.114 0 0 0 1.114 1.114h53.493a1.111 1.111 0 0 0 1.114-1.114V9.114A1.114 1.114 0 0 0 54.607 8zM32.319 43.662H10.03v-2.229h22.289zm0-11.144H10.03v-2.229h22.289zm0-11.144H10.03v-2.23h22.289zm14.4 19.807l-3.121 4.458a1.09 1.09 0 0 1-.744.461 1.018 1.018 0 0 1-.165.013 1.1 1.1 0 0 1-.689-.231l-2.9-2.229a1.115 1.115 0 0 1 1.358-1.767l1.972 1.519 2.455-3.5a1.114 1.114 0 1 1 1.824 1.28zm0-11.144l-3.121 4.458a1.09 1.09 0 0 1-.744.461 1.019 1.019 0 0 1-.165.013 1.1 1.1 0 0 1-.689-.231l-2.9-2.229a1.115 1.115 0 0 1 1.358-1.767l1.972 1.519 2.455-3.5a1.113 1.113 0 0 1 1.824 1.276zm0-11.144l-3.125 4.457a1.09 1.09 0 0 1-.744.461 1.019 1.019 0 0 1-.165.013 1.1 1.1 0 0 1-.685-.231l-2.9-2.229a1.115 1.115 0 0 1 1.364-1.764l1.972 1.519 2.455-3.5a1.114 1.114 0 1 1 1.824 1.28zm0 0" transform="translate(0 -8)"/>
</svg>
