<svg xmlns="http://www.w3.org/2000/svg" width="60.968" height="51.213" viewBox="0 0 60.968 51.213">
  <defs>
    <style>
      .cls-1 {
        fill: #553ba8;
      }
    </style>
  </defs>
  <g id="surface2367453" transform="translate(0 1.504)">
    <path id="Path_9716" data-name="Path 9716" class="cls-1" d="M59.748,8H1.219A1.222,1.222,0,0,0,0,9.219V57.993a1.219,1.219,0,0,0,1.219,1.219H59.748a1.216,1.216,0,0,0,1.219-1.219V9.219A1.219,1.219,0,0,0,59.748,8ZM35.361,47.019H10.974V44.581H35.361Zm0-12.194H10.974V32.387H35.361Zm0-12.194H10.974V20.194H35.361ZM51.113,44.3,47.7,49.182a1.192,1.192,0,0,1-.814.5,1.114,1.114,0,0,1-.181.014,1.208,1.208,0,0,1-.743-.252L42.787,47.01a1.219,1.219,0,0,1,1.486-1.934l2.158,1.662L49.117,42.9a1.219,1.219,0,1,1,2,1.4Zm0-12.194L47.7,36.988a1.192,1.192,0,0,1-.814.5,1.115,1.115,0,0,1-.181.014,1.208,1.208,0,0,1-.743-.252l-3.172-2.439a1.219,1.219,0,0,1,1.486-1.934l2.158,1.662,2.686-3.83a1.218,1.218,0,0,1,2,1.4Zm0-12.194L47.7,24.795a1.192,1.192,0,0,1-.814.5,1.115,1.115,0,0,1-.181.014,1.208,1.208,0,0,1-.743-.252l-3.172-2.439a1.219,1.219,0,0,1,1.486-1.934l2.158,1.662,2.686-3.834a1.219,1.219,0,1,1,2,1.4Zm0,0" transform="translate(0 -9.504)"/>
  </g>
</svg>
