<svg xmlns="http://www.w3.org/2000/svg" width="65.374" height="65.374" viewBox="0 0 65.374 65.374">
  <defs>
    <style>
      .cls-1 {
        fill: #553ba8;
      }
    </style>
  </defs>
  <g id="surface2353310" transform="translate(0 -0.601)">
    <path id="Path_9714" data-name="Path 9714" class="cls-1" d="M73.374,40.687A32.673,32.673,0,0,1,25.71,69.732l-12.523,3.5A4.088,4.088,0,0,1,8.153,68.19l3.5-12.513a32.684,32.684,0,1,1,61.725-14.99Zm-30.235,5.72c0-2.515,1.232-3.668,2.937-5.264,1.97-1.839,4.418-4.124,4.418-8.628a9.806,9.806,0,0,0-19.612,0,2.452,2.452,0,1,0,4.9,0,4.9,4.9,0,0,1,9.806,0c0,2.27-.983,3.291-2.863,5.05-2,1.867-4.491,4.194-4.491,8.842a2.452,2.452,0,0,0,4.9,0Zm-2.452,5.72A3.269,3.269,0,1,0,43.956,55.4,3.267,3.267,0,0,0,40.687,52.127Zm0,0" transform="translate(-8 -7.399)"/>
  </g>
</svg>
