<svg xmlns="http://www.w3.org/2000/svg" id="surface1993004" width="157.708" height="157.708" viewBox="0 0 157.708 157.708">
    <defs>
        <style>
            .cls-1{fill:#fff}.cls-3{fill:#e8edff}
        </style>
    </defs>
    <path id="Path_9699" d="M143.563 8a47.563 47.563 0 1 0 47.563 47.563A47.564 47.564 0 0 0 143.563 8zm0 0" class="cls-1" transform="translate(-37.172 -4.245)"/>
    <path id="Path_9700" fill="#556bff" d="M164.517 64a12.517 12.517 0 1 0 12.517 12.517A12.516 12.516 0 0 0 164.517 64zm0 0" transform="translate(-58.126 -25.199)"/>
    <path id="Path_9701" d="M69.58 109.6l13.52 11.516v25.033H58.066v25.033H33.033v25.033H8v-25.033zm0 0" class="cls-1" transform="translate(-4.245 -42.262)"/>
    <path id="Path_9702" d="M141.318 104.636a51.318 51.318 0 1 1 51.318-51.318 51.389 51.389 0 0 1-51.318 51.318zm0-95.126a43.808 43.808 0 1 0 43.808 43.808A43.855 43.855 0 0 0 141.318 9.51zm0 0" class="cls-3" transform="translate(-34.927 -2)"/>
    <path id="Path_9703" d="M30.788 205.881H5.755A3.689 3.689 0 0 1 2 202.126v-25.033a3.408 3.408 0 0 1 1.127-2.628l47.937-47.939a3.718 3.718 0 0 1 5.258 5.258L9.51 178.594v19.777h17.523v-21.278a3.689 3.689 0 0 1 3.755-3.755h21.278V152.06a3.689 3.689 0 0 1 3.755-3.755H77.1a3.755 3.755 0 1 1 0 7.51H59.576v21.278a3.689 3.689 0 0 1-3.755 3.755H34.543v21.278a3.689 3.689 0 0 1-3.755 3.755zm0 0" class="cls-3" transform="translate(-2 -48.173)"/>
</svg>
