<svg xmlns="http://www.w3.org/2000/svg" width="45.181" height="43.202" viewBox="0 0 45.181 43.202">
    <g>
        <g>
            <path fill="#553ba8" d="M10.941 28.506a13.4 13.4 0 0 0 3.121 5.135 1.964 1.964 0 0 1-1.314 3.342h-.083a1.931 1.931 0 0 1-1.383-.572A17.351 17.351 0 0 1 7.2 29.686a1.918 1.918 0 0 1 .171-1.558 1.978 1.978 0 0 1 1.314-.922 1.931 1.931 0 0 1 .383-.037 1.973 1.973 0 0 1 1.873 1.337zm23.565 8.477a1.931 1.931 0 0 0 1.383-.572 17.351 17.351 0 0 0 4.084-6.726 1.922 1.922 0 0 0-.171-1.558 1.978 1.978 0 0 0-1.314-.922 1.927 1.927 0 0 0-.383-.037 1.973 1.973 0 0 0-1.876 1.383 13.41 13.41 0 0 1-3.121 5.135 1.964 1.964 0 0 0 1.318 3.342zM20.585 11.367a13.539 13.539 0 0 1 5.993 0 1.941 1.941 0 0 0 2.273-1.258 1.973 1.973 0 0 0-.135-1.609 1.945 1.945 0 0 0-1.268-.959 17.438 17.438 0 0 0-7.735 0 1.962 1.962 0 0 0 .871 3.826zM9.411 23.5h7.569a.793.793 0 0 0 .793-.788v-2.628a2.231 2.231 0 0 0-.286-1.125 2.061 2.061 0 0 0-.922-.834 9.819 9.819 0 0 0-1.77-.668l-2.3-.608a1.217 1.217 0 0 1-.894-.982V14.71h.055a6.9 6.9 0 0 0 3.268-.747.461.461 0 0 0 .037-.724c-.5-.415-1.166-1.383-.959-3.457.318-3.227-.4-6.1-3.01-5.859A2.9 2.9 0 0 0 7.6 3.42c-.774.3-2.849 1.037-2.766 5.532.065 2.826-.581 3.891-1.074 4.287a.461.461 0 0 0 .037.728 5.9 5.9 0 0 0 3.3.765v1.13a1.217 1.217 0 0 1-.89.982l-2.3.608a9.823 9.823 0 0 0-1.77.668 2.056 2.056 0 0 0-.922.834 2.226 2.226 0 0 0-.221 1.134v2.623a.793.793 0 0 0 .793.793h7.624zm35.55-5.37a9.823 9.823 0 0 0-1.77-.668l-2.3-.608a1.217 1.217 0 0 1-.89-.982V14.71h.055a6.9 6.9 0 0 0 3.268-.747.461.461 0 0 0 .037-.724c-.5-.415-1.166-1.383-.959-3.457.318-3.227-.4-6.1-3.01-5.859A2.9 2.9 0 0 0 36 3.42c-.774.3-2.849 1.037-2.766 5.532.065 2.826-.581 3.891-1.074 4.287a.461.461 0 0 0 .037.728 5.9 5.9 0 0 0 3.3.765v1.13a1.217 1.217 0 0 1-.857.991l-2.3.608a9.819 9.819 0 0 0-1.77.668 2.056 2.056 0 0 0-.922.834 2.226 2.226 0 0 0-.286 1.125v2.623a.793.793 0 0 0 .793.793h15.212a.793.793 0 0 0 .8-.793v-2.627a2.226 2.226 0 0 0-.286-1.125 2.056 2.056 0 0 0-.922-.834zM25.863 37.55a6.9 6.9 0 0 0 3.268-.747.461.461 0 0 0 .037-.724c-.5-.415-1.166-1.383-.959-3.457.323-3.227-.4-6.1-3.01-5.859a2.9 2.9 0 0 0-3.384-.507c-.774.3-2.849 1.037-2.766 5.532.065 2.826-.581 3.891-1.074 4.287a.461.461 0 0 0 .074.738 5.9 5.9 0 0 0 3.3.761V38.7a1.217 1.217 0 0 1-.89.982l-2.3.608a9.855 9.855 0 0 0-1.77.668 2.061 2.061 0 0 0-.922.834 2.231 2.231 0 0 0-.286 1.125v2.618a.793.793 0 0 0 .793.793h15.209a.793.793 0 0 0 .793-.793v-2.614a2.231 2.231 0 0 0-.29-1.129 2.061 2.061 0 0 0-.922-.834 9.874 9.874 0 0 0-1.77-.668l-2.3-.608a1.217 1.217 0 0 1-.89-.982v-1.15z" transform="translate(-161.988 -879) translate(161.988 879) translate(-.988 -3.13)"/>
        </g>
    </g>
</svg>
