<svg xmlns="http://www.w3.org/2000/svg" id="surface1858083" width="37.279" height="37.279" viewBox="0 0 37.279 37.279">
    <defs>
        <style>
            .cls-1{fill:#556cff}.cls-2{fill:#4788c7}.cls-3{fill:#dff0fe}.cls-4{fill:#fff}
        </style>
    </defs>
    <path id="Path_9657" d="M4.551 65.617a7.634 7.634 0 0 1 7.608-7.117h6.1a7.633 7.633 0 0 1 7.608 7.117zm0 0" class="cls-1" transform="translate(-4.025 -41.063)"/>
    <path id="Path_9658" d="M17.234 58.017a7.128 7.128 0 0 1 7.044 6.1H4.09a7.128 7.128 0 0 1 7.044-6.1h6.1m0-1.017h-6.1A8.134 8.134 0 0 0 3 65.134h22.367A8.134 8.134 0 0 0 17.234 57zm0 0" class="cls-2" transform="translate(-3 -40.077)"/>
    <path id="Path_9659" d="M29.058 54.832c-2.713 0-3.438-1.487-3.558-1.794V49.5h7.117v3.539c-.117.312-.847 1.793-3.559 1.793zm0 0" class="cls-3" transform="translate(-18.431 -34.831)"/>
    <path id="Path_9660" d="M31.117 49.017v2.92c-.169.347-.866 1.4-3.05 1.4-2.2 0-2.891-1.067-3.05-1.391v-2.929h6.1M32.134 48H24v4.132s.638 2.217 4.067 2.217 4.067-2.217 4.067-2.217zm0 0" class="cls-2" transform="translate(-17.419 -33.836)"/>
    <path id="Path_9661" d="M25.092 28.5a1.39 1.39 0 0 1-1.062-.506l-.106-.128-.163-.04A5.579 5.579 0 0 1 19.5 22.4v-5.349a2.4 2.4 0 0 1 2.4-2.4h6.386a2.4 2.4 0 0 1 2.4 2.4V22.4a5.579 5.579 0 0 1-4.26 5.426l-.163.04-.106.128a1.39 1.39 0 0 1-1.065.506zm0 0" class="cls-3" transform="translate(-13.908 -10.703)"/>
    <path id="Path_9662" d="M27.293 14.169a1.892 1.892 0 0 1 1.89 1.89V21.4a5.065 5.065 0 0 1-3.874 4.931l-.326.079-.214.257A.865.865 0 0 1 24.1 27a.874.874 0 0 1-.671-.323l-.214-.258-.326-.078a5.068 5.068 0 0 1-3.872-4.941v-5.341a1.894 1.894 0 0 1 1.89-1.892h6.386m0-1.015h-6.386A2.907 2.907 0 0 0 18 16.059V21.4a6.1 6.1 0 0 0 4.648 5.919 1.874 1.874 0 0 0 2.9 0A6.1 6.1 0 0 0 30.2 21.4v-5.341a2.907 2.907 0 0 0-2.907-2.907zm0 0" class="cls-2" transform="translate(-12.917 -9.712)"/>
    <path id="Path_9663" d="M24.086 22.018a6.3 6.3 0 0 1-3.541-1.618 6.191 6.191 0 0 0 1.86-4.641V14.1a8.539 8.539 0 0 0-1-3.655l-.336-.6-.477.5A9.755 9.755 0 0 1 16 12.646a3.491 3.491 0 0 0-2.74 3.032 6.424 6.424 0 0 0 1.663 4.643 5.376 5.376 0 0 1-3.344 1.7 5.726 5.726 0 0 1-3.058-1.051 4.667 4.667 0 0 0 1.831-3.47c0-.7-.032-1.239-.066-1.808-.04-.642-.081-1.307-.081-2.314 0-5.827 3.639-8.876 7.233-8.876a4.066 4.066 0 0 1 3.838 2.044l.134.3h.331c3.07 0 3.713 3.124 3.713 5.747 0 1.062-.085 1.958-.164 2.825-.077.81-.148 1.577-.148 2.415a2.871 2.871 0 0 0 1.983 2.615 4.371 4.371 0 0 1-3.039 1.57zm0 0" class="cls-1" transform="translate(-6.646 -3.992)"/>
    <path id="Path_9664" d="M15.776 4.017a3.588 3.588 0 0 1 3.372 1.741l.267.6h.662c2.127 0 3.206 1.763 3.206 5.24 0 1.037-.083 1.922-.163 2.777-.077.823-.15 1.6-.15 2.462a3.153 3.153 0 0 0 1.63 2.748 3.437 3.437 0 0 1-2.178.932 5.27 5.27 0 0 1-2.791-1.161 6.83 6.83 0 0 0 1.619-4.586V13.1a9.071 9.071 0 0 0-1.067-3.9l-.671-1.189-.95.989a9.311 9.311 0 0 1-4.342 2.163 4.029 4.029 0 0 0-3.136 3.528 7.192 7.192 0 0 0 1.464 4.6 4.494 4.494 0 0 1-2.637 1.227 4.8 4.8 0 0 1-2.221-.629 4.883 4.883 0 0 0 1.51-3.381c0-.721-.033-1.264-.068-1.84-.038-.635-.078-1.292-.078-2.284 0-5.494 3.384-8.368 6.726-8.368m0-1.017c-3.757 0-7.743 3.2-7.743 9.385 0 1.92.146 2.645.146 4.124C8.179 18.664 6 19.971 6 19.971a6.674 6.674 0 0 0 3.911 1.563c2.184 0 4.076-2.237 4.076-2.237s-1.887-1.268-1.887-4.61a3.015 3.015 0 0 1 2.344-2.536A10.122 10.122 0 0 0 19.3 9.7a8.042 8.042 0 0 1 .939 3.4v1.67A5.455 5.455 0 0 1 18.1 19.4s2.157 2.139 4.326 2.139c2.351 0 3.911-2.347 3.911-2.347s-2.347-.418-2.347-2.346c0-1.714.314-3.169.314-5.241 0-4.5-1.814-6.256-4.223-6.256A4.562 4.562 0 0 0 15.776 3zm0 0" class="cls-2" transform="translate(-4.983 -3)"/>
    <path id="Path_9665" d="M28.551 83.617a7.634 7.634 0 0 1 7.608-7.117h6.1a7.633 7.633 0 0 1 7.608 7.117zm0 0" class="cls-3" transform="translate(-21.012 -53.407)"/>
    <path id="Path_9666" d="M41.234 76.017a7.128 7.128 0 0 1 7.044 6.1H28.09a7.127 7.127 0 0 1 7.044-6.1h6.1m0-1.017h-6.1A8.134 8.134 0 0 0 27 83.134h22.367A8.134 8.134 0 0 0 41.234 75zm0 0" class="cls-2" transform="translate(-19.983 -52.436)"/>
    <path id="Path_9667" d="M53.058 72.832c-2.713 0-3.438-1.487-3.558-1.794V67.5h7.117v3.539c-.117.312-.847 1.793-3.559 1.793zm0 0" class="cls-4" transform="translate(-34.89 -47.152)"/>
    <path id="Path_9668" d="M55.117 67.017v2.92c-.169.347-.866 1.4-3.05 1.4-2.2 0-2.891-1.067-3.05-1.391v-2.929h6.1M56.134 66H48v4.132s.638 2.217 4.067 2.217 4.067-2.217 4.067-2.217zm0 0" class="cls-2" transform="translate(-33.897 -46.17)"/>
    <path id="Path_9669" d="M49.094 46.5a1.39 1.39 0 0 1-1.062-.506l-.106-.128-.163-.04A5.576 5.576 0 0 1 43.5 40.4v-5.349a2.4 2.4 0 0 1 2.4-2.4h6.386a2.4 2.4 0 0 1 2.4 2.4V40.4a5.579 5.579 0 0 1-4.261 5.426l-.162.04-.106.128a1.4 1.4 0 0 1-1.063.506zm0 0" class="cls-4" transform="translate(-30.921 -23.527)"/>
    <path id="Path_9670" d="M51.3 32.169a1.892 1.892 0 0 1 1.89 1.89V39.4a5.065 5.065 0 0 1-3.874 4.931l-.326.079-.214.257A.865.865 0 0 1 48.1 45a.874.874 0 0 1-.671-.323l-.214-.258-.326-.078a5.068 5.068 0 0 1-3.87-4.941v-5.341a1.894 1.894 0 0 1 1.89-1.892H51.3m0-1.015h-6.39A2.907 2.907 0 0 0 42 34.059V39.4a6.1 6.1 0 0 0 4.648 5.919 1.872 1.872 0 0 0 2.9 0A6.1 6.1 0 0 0 54.2 39.4v-5.341a2.907 2.907 0 0 0-2.9-2.907zm0 0" class="cls-2" transform="translate(-29.928 -22.524)"/>
    <path id="Path_9671" fill="#b6dcfe" d="M48.086 40.018a6.3 6.3 0 0 1-3.541-1.618 6.191 6.191 0 0 0 1.86-4.641V32.1a8.539 8.539 0 0 0-1-3.655l-.336-.6-.477.5A9.755 9.755 0 0 1 40 30.646a3.491 3.491 0 0 0-2.74 3.032 6.424 6.424 0 0 0 1.663 4.643 5.376 5.376 0 0 1-3.344 1.7 5.726 5.726 0 0 1-3.058-1.051 4.667 4.667 0 0 0 1.831-3.47c0-.7-.032-1.239-.066-1.808-.04-.642-.081-1.307-.081-2.314 0-5.827 3.639-8.876 7.233-8.876a4.066 4.066 0 0 1 3.838 2.044l.134.3h.331c3.07 0 3.713 3.124 3.713 5.747 0 1.062-.085 1.958-.164 2.825-.077.81-.148 1.577-.148 2.415a2.871 2.871 0 0 0 1.983 2.615 4.371 4.371 0 0 1-3.039 1.57zm0 0" transform="translate(-23.641 -16.6)"/>
    <path id="Path_9672" d="M39.776 22.017a3.588 3.588 0 0 1 3.372 1.741l.267.6h.662c2.127 0 3.206 1.762 3.206 5.24 0 1.037-.083 1.922-.163 2.777-.077.823-.15 1.6-.15 2.462a3.153 3.153 0 0 0 1.63 2.748 3.437 3.437 0 0 1-2.178.932 5.27 5.27 0 0 1-2.791-1.161 6.83 6.83 0 0 0 1.619-4.586V31.1a9.071 9.071 0 0 0-1.067-3.9l-.671-1.189-.95.989a9.311 9.311 0 0 1-4.342 2.163 4.029 4.029 0 0 0-3.136 3.528 7.192 7.192 0 0 0 1.464 4.6 4.494 4.494 0 0 1-2.637 1.227 4.8 4.8 0 0 1-2.221-.629 4.883 4.883 0 0 0 1.51-3.381c0-.721-.033-1.264-.068-1.84-.038-.635-.078-1.292-.078-2.284 0-5.494 3.384-8.368 6.726-8.368m0-1.017c-3.757 0-7.743 3.2-7.743 9.385 0 1.92.146 2.645.146 4.124 0 2.155-2.179 3.463-2.179 3.463a6.674 6.674 0 0 0 3.911 1.563c2.184 0 4.076-2.237 4.076-2.237s-1.891-1.268-1.891-4.61a3.015 3.015 0 0 1 2.344-2.536A10.122 10.122 0 0 0 43.3 27.7a8.042 8.042 0 0 1 .939 3.4v1.67A5.455 5.455 0 0 1 42.1 37.4s2.157 2.139 4.326 2.139c2.351 0 3.911-2.347 3.911-2.347s-2.347-.418-2.347-2.346c0-1.714.314-3.169.314-5.241 0-4.5-1.814-6.256-4.223-6.256A4.562 4.562 0 0 0 39.776 21zm0 0" class="cls-2" transform="translate(-21.973 -15.585)"/>
    <path id="Path_9673" d="M76.142 84.784a8.642 8.642 0 1 1 8.642-8.642 8.651 8.651 0 0 1-8.642 8.642zm0 0" class="cls-1" transform="translate(-48.013 -48.013)"/>
    <path id="Path_9674" d="M75.15 67.017a8.134 8.134 0 1 1-8.134 8.134 8.142 8.142 0 0 1 8.134-8.134m0-1.017a9.15 9.15 0 1 0 9.15 9.15A9.149 9.149 0 0 0 75.15 66zm0 0" class="cls-2" transform="translate(-47.022 -47.022)"/>
    <path id="Path_9675" fill="none" stroke="#fff" stroke-miterlimit="10" stroke-width="6px" d="M83.083 88.166V78M78 83.083h10.166" transform="translate(-54.955 -54.955)"/>
</svg>
