<svg xmlns="http://www.w3.org/2000/svg" width="54.797" height="54.797" viewBox="0 0 54.797 54.797">
    <g>
        <path fill="#556cff" stroke="#556cff" stroke-miterlimit="10" stroke-width="0.93px" d="M30.933 4a26.933 26.933 0 1 0 26.934 26.933A26.934 26.934 0 0 0 30.933 4zM11.088 30.933a19.834 19.834 0 0 1 31.14-16.307l-27.6 27.6a19.734 19.734 0 0 1-3.54-11.293zm19.845 19.846a19.734 19.734 0 0 1-11.295-3.538l27.6-27.6a19.834 19.834 0 0 1-16.307 31.14zm0 0" transform="translate(.465 .465) translate(-4 -4)"/>
    </g>
</svg>
