<svg xmlns="http://www.w3.org/2000/svg" width="35.249" height="48" viewBox="0 0 35.249 48">
    <defs>
        <style>
            .cls-1{fill:none}
        </style>
    </defs>
    <g id="noun_Technologist_94099" transform="translate(-15.1 -4.462)">
        <path id="Path_9770" d="M49.022 54.828c.315-.787.629-1.626.682-1.836.262-.577-.315-.42-1.574.472a5.684 5.684 0 0 1-6.662-.262c-.787-.525-1-.42-.892-.052.839 2.1 1.154 3.2 1.469 3.829 2.046.839 4.616 1 6.137-.1a19.029 19.029 0 0 0 .84-2.051z" class="cls-1" transform="translate(-12.101 -22.912)"/>
        <path id="Path_9771" d="M47.551 20.4a35.555 35.555 0 0 1-5.508-2.465 9.292 9.292 0 0 0-1.626-.839 10.643 10.643 0 0 0-1.469 1.364 14.879 14.879 0 0 1-2.623 2.046c-1.521.787-1.626.944-1.626 3.2 0 3.986 2.36 9.389 4.931 11.225 1.888 1.364 3.672 1.259 5.717-.367a11.5 11.5 0 0 0 3.41-5.455 11.459 11.459 0 0 0 .577-4.459c.001-3.196-.209-3.616-1.783-4.25z" class="cls-1" transform="translate(-9.319 -6.009)"/>
        <g id="Group_264">
            <path id="Path_9772" fill="#553ba8" d="M50.349 38.682c0-1.731-.839-4.2-2.151-5.193a6.425 6.425 0 0 0-1.993-1.364c-.839-.367-1.206-.682-1.311-1.1a27.694 27.694 0 0 1-.1-4.249 34.8 34.8 0 0 0-.367-6.5c-.839-5.193-1.049-5.98-2.151-8.183-2.57-5.3-7.134-8.288-11.54-7.5a9.152 9.152 0 0 0-4.778 2.617 25.234 25.234 0 0 0-3.724 7.448c-.577 1.941-.577 2.046-.629 8.13 0 6.032-.1 6.871-.787 8.707a2.292 2.292 0 0 1-1.418 1.05l-.315.157c-2.308.577-3.986 3.567-3.986 6.032v12.9h35.25V38.682zm-20.4-4.563c-.315-.629-.629-1.731-1.469-3.829-.1-.367.1-.472.892.052a5.77 5.77 0 0 0 6.662.262c1.259-.892 1.836-1.1 1.574-.472-.1.21-.367 1.049-.682 1.836-.472 1.154-.787 2.1-.787 2.1-1.579 1.047-4.149.89-6.195.051zm10.014-15.474a11.617 11.617 0 0 1-.577 4.459 11.5 11.5 0 0 1-3.41 5.455c-2.046 1.626-3.829 1.731-5.717.367-2.518-1.836-4.931-7.291-4.931-11.225 0-2.256.1-2.413 1.626-3.2a12.759 12.759 0 0 0 2.623-2.046 10.643 10.643 0 0 1 1.469-1.364 9.292 9.292 0 0 1 1.626.839 35.555 35.555 0 0 0 5.508 2.47c1.626.625 1.836 1.045 1.783 4.245z"/>
            <text id="_" fill="#fff" font-family="Raleway-Bold, Raleway" font-size="15px" font-weight="700" transform="translate(29.1 48.462)">
                <tspan x="0" y="0">?</tspan>
            </text>
        </g>
    </g>
</svg>
