<svg xmlns="http://www.w3.org/2000/svg" id="surface1857697" width="48.635" height="45.635" viewBox="0 0 48.635 45.635">
    <defs>
        <style>
            .cls-1{fill:#556cff}.cls-2{fill:#4788c7}.cls-3{fill:#fff}
        </style>
    </defs>
    <path id="Path_9647" d="M4.531 96.191a14.332 14.332 0 0 1 14.3-13.691h9.957a14.332 14.332 0 0 1 14.3 13.691zm0 0" class="cls-1" transform="translate(-3.896 -51.178)"/>
    <path id="Path_9648" d="M27.892 82.245a13.708 13.708 0 0 1 13.634 12.446H4.3a13.708 13.708 0 0 1 13.635-12.446h9.957m0-1.245h-9.957A14.935 14.935 0 0 0 3 95.935h39.827A14.935 14.935 0 0 0 27.892 81zm0 0" class="cls-2" transform="translate(-3 -50.3)"/>
    <path id="Path_9649" d="M43.1 77.457c-4.006 0-5.362-2.616-5.6-3.157v-6.8h11.2v6.8c-.232.536-1.59 3.157-5.6 3.157zm0 0" class="cls-3" transform="translate(-23.845 -41.93)"/>
    <path id="Path_9650" d="M47.2 67.245v6.041c-.3.608-1.57 2.671-4.978 2.671a5.217 5.217 0 0 1-4.978-2.672v-6.04H47.2M48.446 66H36v7.545s1.327 3.655 6.223 3.655 6.223-3.656 6.223-3.656zm0 0" class="cls-2" transform="translate(-22.961 -41.065)"/>
    <path id="Path_9651" d="M37.834 40.318a3.051 3.051 0 0 1-2.042-.786l-.112-.1-.146-.037a9.317 9.317 0 0 1-7.034-9.034V18.787a4.128 4.128 0 0 1 4.123-4.123h10.423a4.127 4.127 0 0 1 4.124 4.123v11.574a9.317 9.317 0 0 1-7.034 9.039l-.146.037-.112.1a3.058 3.058 0 0 1-2.044.781zm0 0" class="cls-3" transform="translate(-18.534 -9.825)"/>
    <path id="Path_9652" d="M42.169 14.413a3.5 3.5 0 0 1 3.5 3.5v11.572a8.7 8.7 0 0 1-6.569 8.434l-.29.073-.225.2a2.427 2.427 0 0 1-3.264 0l-.225-.2-.29-.073a8.7 8.7 0 0 1-6.565-8.433V17.913a3.5 3.5 0 0 1 3.5-3.5h10.428m0-1.245H31.745A4.745 4.745 0 0 0 27 17.913v11.572a9.952 9.952 0 0 0 7.5 9.639 3.672 3.672 0 0 0 4.907 0 9.952 9.952 0 0 0 7.5-9.639V17.913a4.745 4.745 0 0 0-4.738-4.745zm0 0" class="cls-2" transform="translate(-17.647 -8.95)"/>
    <path id="Path_9653" d="M39.611 34.37a10.172 10.172 0 0 1-5.311-1.847 7.508 7.508 0 0 0 3.447-6.686v-5.88c0-3-2.6-5.256-2.706-5.351l-.536-.457-.389.588a12.374 12.374 0 0 1-8.278 4.7 4.637 4.637 0 0 0-4.272 4.517v1.878a7.416 7.416 0 0 0 3.432 6.7 10.122 10.122 0 0 1-5.3 1.838 9.516 9.516 0 0 1-5.178-1.847 7.35 7.35 0 0 0 3.043-5.531 21.4 21.4 0 0 0-.451-3.669 25.275 25.275 0 0 1-.527-4.51C16.586 8.248 23.29 4.5 29.032 4.5c4.732 0 6.262 3.33 6.276 3.363l.164.371h.405c4.35 0 6.845 3.4 6.845 9.334a31.442 31.442 0 0 1-.658 5.328 28.11 28.11 0 0 0-.587 4.628 4.479 4.479 0 0 0 3.288 4.084c-.881 1.01-2.754 2.762-5.154 2.762zm0 0" class="cls-1" transform="translate(-9.74 -3.878)"/>
    <path id="Path_9654" d="M27.557 4.245c4.265 0 5.654 2.881 5.708 2.993l.327.741h.81c4.013 0 6.223 3.094 6.223 8.712a31.178 31.178 0 0 1-.647 5.218 28.412 28.412 0 0 0-.6 4.739 4.8 4.8 0 0 0 2.849 4.295 6.17 6.17 0 0 1-4.094 1.928 8.816 8.816 0 0 1-4.178-1.258 8.157 8.157 0 0 0 2.933-6.654v-5.88c0-3.283-2.805-5.721-2.925-5.823l-1.063-.905-.779 1.165a11.548 11.548 0 0 1-7.844 4.432 5.245 5.245 0 0 0-4.808 5.131v1.878a8.1 8.1 0 0 0 2.915 6.672 8.719 8.719 0 0 1-4.16 1.241 8.337 8.337 0 0 1-4.145-1.295 7.614 7.614 0 0 0 2.635-5.461 21.841 21.841 0 0 0-.462-3.779 24.823 24.823 0 0 1-.517-4.4c0-10.1 6.37-13.691 11.824-13.691m0-1.245C20.976 3 14.489 7.6 14.489 17.935c0 3.055.979 5.828.979 8.179 0 3.429-3.468 5.512-3.468 5.512a10.614 10.614 0 0 0 6.223 2.489 11.461 11.461 0 0 0 6.486-2.559s-4-1.277-4-6.6V23.08a3.994 3.994 0 0 1 3.734-3.9 12.857 12.857 0 0 0 8.715-4.98s2.489 2.129 2.489 4.878v5.879c0 5.22-4 6.6-4 6.6a11.577 11.577 0 0 0 6.489 2.557c3.74 0 6.223-3.734 6.223-3.734s-3.734-.666-3.734-3.734c0-2.726 1.245-6.661 1.245-9.957 0-7.169-3.442-9.957-7.468-9.957C34.4 6.734 32.75 3 27.557 3zm0 0" class="cls-2" transform="translate(-8.266 -3)"/>
    <path id="Path_9655" d="M101.489 57a2.489 2.489 0 1 0 2.489 2.489A2.49 2.49 0 0 0 101.489 57zm0 0" class="cls-2" transform="translate(-60.832 -35.476)"/>
    <path id="Path_9656" fill="none" stroke="#4788c7" stroke-miterlimit="10" stroke-width="6px" d="M97.978 28.18v-2.49c0-2.667 4.978-4.354 4.978-8.712a4.978 4.978 0 0 0-9.957 0v1.245" transform="translate(-57.321 -8.266)"/>
</svg>
