<svg xmlns="http://www.w3.org/2000/svg" width="43.594" height="42.807" viewBox="0 0 43.594 42.807">
    <g>
        <path fill="#553ba8" d="M44.318 40.3a2.153 2.153 0 0 1 .276 1.085v2.527a.765.765 0 0 1-.765.765h-14.68a.765.765 0 0 1-.765-.765v-2.528a2.149 2.149 0 0 1 .276-1.085 1.984 1.984 0 0 1 .89-.805 9.479 9.479 0 0 1 1.726-.645l2.224-.587a1.174 1.174 0 0 0 .863-.947V36.225a5.7 5.7 0 0 1-3.185-.738.445.445 0 0 1-.036-.7c.476-.387 1.1-1.41 1.036-4.137-.1-4.342 1.9-5.062 2.669-5.338a2.827 2.827 0 0 1 3.265.489c2.518-.231 3.216 2.518 2.9 5.654-.2 2.015.445 2.936.925 3.336a.445.445 0 0 1-.036.7 6.794 6.794 0 0 1-3.207.694h-.053v1.112a1.174 1.174 0 0 0 .859.948l2.224.587a9.475 9.475 0 0 1 1.708.645 1.988 1.988 0 0 1 .886.823zM1.765 44.676h14.68a.765.765 0 0 0 .765-.765v-2.527a2.149 2.149 0 0 0-.276-1.085 1.984 1.984 0 0 0-.89-.805 9.476 9.476 0 0 0-1.726-.645l-2.224-.587a1.174 1.174 0 0 1-.863-.947v-1.136h.053a6.659 6.659 0 0 0 3.154-.721.445.445 0 0 0 .036-.7c-.485-.4-1.125-1.335-.925-3.336.307-3.114-.387-5.885-2.9-5.654a2.8 2.8 0 0 0-3.265-.489c-.747.285-2.749 1-2.669 5.338.062 2.727-.56 3.754-1.036 4.137a.445.445 0 0 0 .036.7 5.7 5.7 0 0 0 3.185.738V37.278a1.174 1.174 0 0 1-.859.948l-2.166.618a9.48 9.48 0 0 0-1.708.645 1.984 1.984 0 0 0-.89.805A2.149 2.149 0 0 0 1 41.384v2.527a.765.765 0 0 0 .765.765zm29.128-23.91v-2.531a2.153 2.153 0 0 0-.276-1.085 1.988 1.988 0 0 0-.89-.805 9.533 9.533 0 0 0-1.708-.627l-2.224-.587a1.174 1.174 0 0 1-.859-.948v-1.135h.053a6.659 6.659 0 0 0 3.154-.721.445.445 0 0 0 .036-.7c-.485-.4-1.125-1.335-.925-3.336.311-3.114-.387-5.885-2.9-5.654a2.8 2.8 0 0 0-3.265-.489c-.747.285-2.749 1-2.669 5.338.062 2.727-.56 3.754-1.036 4.137a.445.445 0 0 0 .08.716 5.694 5.694 0 0 0 3.185.734V14.159a1.174 1.174 0 0 1-.859.947l-2.224.587a9.515 9.515 0 0 0-1.708.645 1.988 1.988 0 0 0-.89.805 2.153 2.153 0 0 0-.276 1.085v2.527a.765.765 0 0 0 .765.765h14.68a.765.765 0 0 0 .761-.756zm-8.1 3.278a1.806 1.806 0 0 0-1.8 1.8v3.692L17.779 31.5a1.8 1.8 0 1 0 1.877 3.078l3.144-1.912 3.141 1.913a1.8 1.8 0 1 0 1.873-3.079L24.6 29.543v-3.692a1.806 1.806 0 0 0-1.8-1.806z" transform="translate(-.999 -62.22) translate(0 60.351)"/>
    </g>
</svg>
