<svg xmlns="http://www.w3.org/2000/svg" width="51.675" height="47.814" viewBox="0 0 51.675 47.814">
  <g id="Group_54" data-name="Group 54" transform="translate(-539.159 -973.796)">
    <g id="surface1858083" transform="translate(528.006 965.189)">
      <path id="Path_9665" data-name="Path 9665" d="M28.551,87.812A12.135,12.135,0,0,1,40.643,76.5h9.7A12.133,12.133,0,0,1,62.432,87.812Zm0,0" transform="translate(-16.568 -39.795)" fill="#99a5ff"/>
      <path id="Path_9666" data-name="Path 9666" d="M49.624,76.616a11.33,11.33,0,0,1,11.2,9.7H28.732a11.329,11.329,0,0,1,11.2-9.7h9.7m0-1.616h-9.7A12.929,12.929,0,0,0,27,87.928H62.552A12.929,12.929,0,0,0,49.624,75Zm0,0" transform="translate(-15.846 -39.135)" fill="#556cff"/>
      <path id="Path_9667" data-name="Path 9667" d="M55.156,75.976c-4.311,0-5.465-2.363-5.656-2.851V67.5H60.812v5.624C60.618,73.621,59.465,75.976,55.156,75.976Zm0,0" transform="translate(-26.278 -35.158)" fill="#fff"/>
      <path id="Path_9668" data-name="Path 9668" d="M59.312,67.616v4.642c-.269.551-1.376,2.22-4.848,2.22-3.5,0-4.6-1.7-4.848-2.211v-4.65h9.7M60.928,66H48v6.567s1.014,3.524,6.464,3.524,6.464-3.524,6.464-3.524Zm0,0" transform="translate(-25.584 -34.481)" fill="#556cff"/>
      <path id="Path_9669" data-name="Path 9669" d="M52.39,54.656a2.21,2.21,0,0,1-1.688-.8l-.168-.2-.259-.063A8.863,8.863,0,0,1,43.5,44.96V36.465a3.816,3.816,0,0,1,3.811-3.813H57.465a3.817,3.817,0,0,1,3.813,3.813V44.96A8.867,8.867,0,0,1,54.5,53.585l-.257.063-.168.2A2.217,2.217,0,0,1,52.39,54.656Zm0,0" transform="translate(-23.504 -18.148)" fill="#fff"/>
      <path id="Path_9670" data-name="Path 9670" d="M56.773,32.768a3.008,3.008,0,0,1,3,3v8.495a8.051,8.051,0,0,1-6.157,7.838l-.518.126-.341.408a1.375,1.375,0,0,1-1.065.516,1.389,1.389,0,0,1-1.067-.513l-.341-.41-.518-.124a8.056,8.056,0,0,1-6.155-7.84V35.773a3.01,3.01,0,0,1,3-3.007H56.773m0-1.614H46.623A4.62,4.62,0,0,0,42,35.773v8.495a9.691,9.691,0,0,0,7.388,9.408,2.976,2.976,0,0,0,4.614,0,9.691,9.691,0,0,0,7.388-9.408V35.773A4.62,4.62,0,0,0,56.773,31.152Zm0,0" transform="translate(-22.809 -17.439)" fill="#556cff"/>
      <path id="Path_9671" data-name="Path 9671" d="M57.265,50.344c-2.224,0-4.522-1.65-5.629-2.567A9.841,9.841,0,0,0,54.593,40.4V37.751A13.572,13.572,0,0,0,53,31.941l-.534-.953-.758.791a15.5,15.5,0,0,1-7.3,3.668,5.549,5.549,0,0,0-4.356,4.819,10.211,10.211,0,0,0,2.643,7.379c-.962.938-3.066,2.7-5.315,2.7a9.1,9.1,0,0,1-4.861-1.671,7.419,7.419,0,0,0,2.918-5.513c0-1.115-.05-1.97-.105-2.874-.063-1.021-.128-2.077-.128-3.678,0-9.263,5.784-14.108,11.5-14.108,4.608,0,6.087,3.215,6.1,3.249l.213.482h.526c4.88,0,5.9,4.966,5.9,9.134,0,1.688-.135,3.112-.261,4.49-.122,1.288-.236,2.506-.236,3.838a4.564,4.564,0,0,0,3.152,4.156A6.947,6.947,0,0,1,57.265,50.344Zm0,0" transform="translate(-18.409 -13.122)" fill="#99a5ff"/>
      <path id="Path_9672" data-name="Path 9672" d="M45.539,22.616c4,0,5.313,2.672,5.359,2.767l.425.962h1.052c3.381,0,5.1,2.8,5.1,8.328,0,1.648-.133,3.055-.259,4.415-.122,1.309-.238,2.542-.238,3.914a5.012,5.012,0,0,0,2.592,4.36,5.464,5.464,0,0,1-3.461,1.481A8.376,8.376,0,0,1,51.671,47a10.856,10.856,0,0,0,2.569-7.289V37.059a14.418,14.418,0,0,0-1.7-6.2l-1.067-1.89L49.966,30.53a14.8,14.8,0,0,1-6.9,3.438,6.4,6.4,0,0,0-4.985,5.608,11.432,11.432,0,0,0,2.327,7.318,7.142,7.142,0,0,1-4.192,1.951,7.632,7.632,0,0,1-3.531-1,7.761,7.761,0,0,0,2.395-5.374c0-1.147-.053-2.009-.107-2.925-.061-1.01-.124-2.054-.124-3.63,0-8.732,5.378-13.3,10.691-13.3m0-1.616c-5.972,0-12.307,5.084-12.307,14.916,0,3.051.231,4.2.231,6.554,0,3.426-3.463,5.5-3.463,5.5a10.607,10.607,0,0,0,6.216,2.485c3.472,0,6.479-3.556,6.479-3.556s-3-2.016-3-7.329a4.792,4.792,0,0,1,3.726-4.032,16.089,16.089,0,0,0,7.71-3.9,12.783,12.783,0,0,1,1.492,5.412v2.649c0,5.214-3.4,7.352-3.4,7.352s3.428,3.4,6.876,3.4c3.737,0,6.216-3.731,6.216-3.731S58.589,46.065,58.589,43c0-2.725.5-5.037.5-8.33,0-7.16-2.883-9.944-6.712-9.944C52.376,24.731,50.726,21,45.539,21Zm0,0" transform="translate(-17.242 -12.393)" fill="#566dff"/>
      <path id="Path_9675" data-name="Path 9675" d="M86.079,94.159V78M78,86.079h16.16" transform="translate(-41.37 -41.37)" fill="none" stroke="#fff" stroke-miterlimit="10" stroke-width="6"/>
    </g>
    <g id="surface1857697" transform="translate(551.643 976.598)">
      <path id="Path_9647" data-name="Path 9647" d="M4.531,96.191A14.332,14.332,0,0,1,18.831,82.5h9.957a14.332,14.332,0,0,1,14.3,13.691Zm0,0" transform="translate(-3.896 -51.178)" fill="#556cff"/>
      <path id="Path_9649" data-name="Path 9649" d="M43.1,77.457c-4.006,0-5.362-2.616-5.6-3.157V67.5H48.7v6.8C48.468,74.836,47.11,77.457,43.1,77.457Zm0,0" transform="translate(-23.845 -41.93)" fill="#fff"/>
      <path id="Path_9650" data-name="Path 9650" d="M47.2,67.245v6.041c-.3.608-1.57,2.671-4.978,2.671a5.217,5.217,0,0,1-4.978-2.672v-6.04H47.2M48.446,66H36v7.545S37.327,77.2,42.223,77.2s6.223-3.656,6.223-3.656Zm0,0" transform="translate(-22.961 -41.065)" fill="#556cff"/>
      <path id="Path_9651" data-name="Path 9651" d="M37.834,40.318a3.051,3.051,0,0,1-2.042-.786l-.112-.1-.146-.037A9.317,9.317,0,0,1,28.5,30.361V18.787a4.128,4.128,0,0,1,4.123-4.123H43.046a4.127,4.127,0,0,1,4.124,4.123V30.361A9.317,9.317,0,0,1,40.136,39.4l-.146.037-.112.1A3.058,3.058,0,0,1,37.834,40.318Zm0,0" transform="translate(-18.534 -9.825)" fill="#fff"/>
      <path id="Path_9652" data-name="Path 9652" d="M42.169,14.413a3.5,3.5,0,0,1,3.5,3.5V29.485A8.7,8.7,0,0,1,39.1,37.919l-.29.073-.225.2a2.427,2.427,0,0,1-3.264,0l-.225-.2-.29-.073a8.7,8.7,0,0,1-6.565-8.433V17.913a3.5,3.5,0,0,1,3.5-3.5H42.169m0-1.245H31.745A4.745,4.745,0,0,0,27,17.913V29.485a9.952,9.952,0,0,0,7.5,9.639,3.672,3.672,0,0,0,4.907,0,9.952,9.952,0,0,0,7.5-9.639V17.913A4.745,4.745,0,0,0,42.169,13.168Zm0,0" transform="translate(-17.647 -8.95)" fill="#556cff"/>
      <path id="Path_9653" data-name="Path 9653" d="M39.611,34.37A10.172,10.172,0,0,1,34.3,32.523a7.508,7.508,0,0,0,3.447-6.686V19.957c0-3-2.6-5.256-2.706-5.351l-.536-.457-.389.588a12.374,12.374,0,0,1-8.278,4.7,4.637,4.637,0,0,0-4.272,4.517v1.878a7.416,7.416,0,0,0,3.432,6.7,10.122,10.122,0,0,1-5.3,1.838,9.516,9.516,0,0,1-5.178-1.847,7.35,7.35,0,0,0,3.043-5.531,21.4,21.4,0,0,0-.451-3.669,25.275,25.275,0,0,1-.527-4.51C16.586,8.248,23.29,4.5,29.032,4.5c4.732,0,6.262,3.33,6.276,3.363l.164.371h.405c4.35,0,6.845,3.4,6.845,9.334a31.442,31.442,0,0,1-.658,5.328,28.11,28.11,0,0,0-.587,4.628,4.479,4.479,0,0,0,3.288,4.084C43.884,32.618,42.011,34.37,39.611,34.37Zm0,0" transform="translate(-9.74 -3.878)" fill="#556cff"/>
    </g>
  </g>
</svg>
