<svg id="Group_1" data-name="Group 1" xmlns="http://www.w3.org/2000/svg" width="48.887" height="48.887" viewBox="0 0 48.887 48.887">
  <defs>
    <style>
      .cls-1 {
        fill: #556cff;
      }
    </style>
  </defs>
  <path id="Path_3" data-name="Path 3" class="cls-1" d="M295.639,256h-6.111A1.528,1.528,0,0,0,288,257.528v12.222a1.528,1.528,0,0,0,1.528,1.528h6.111a3.055,3.055,0,0,0,3.055-3.055v-9.166A3.055,3.055,0,0,0,295.639,256Zm0,12.222h-4.583v-9.166h4.583Z" transform="translate(-260.501 -231.557)"/>
  <path id="Path_4" data-name="Path 4" class="cls-1" d="M425.166,259.055V256h-7.638A1.528,1.528,0,0,0,416,257.528v13.749h3.055v-6.111h6.111v-3.055h-6.111v-3.055Z" transform="translate(-376.28 -231.557)"/>
  <path id="Path_5" data-name="Path 5" class="cls-1" d="M3.055,44.3V4.583A1.528,1.528,0,0,1,4.583,3.055H27.5V9.166a3.055,3.055,0,0,0,3.055,3.055h6.111V16.8H39.72V10.694a1.527,1.527,0,0,0-.443-1.085L30.111.443A1.528,1.528,0,0,0,29.026,0H4.583A4.583,4.583,0,0,0,0,4.583V44.3a4.583,4.583,0,0,0,4.583,4.583H15.277V45.831H4.583A1.528,1.528,0,0,1,3.055,44.3Z" transform="translate(0 0)"/>
  <path id="Path_6" data-name="Path 6" class="cls-1" d="M167.639,256h-6.111A1.528,1.528,0,0,0,160,257.528v13.749h3.055v-4.583h4.583a3.055,3.055,0,0,0,3.055-3.055v-4.583A3.055,3.055,0,0,0,167.639,256Zm0,7.639h-4.583v-4.583h4.583Z" transform="translate(-144.723 -231.557)"/>
</svg>
