<svg id="surface2353310" xmlns="http://www.w3.org/2000/svg" width="30" height="30" viewBox="0 0 30 30">
  <defs>
    <style>
      .cls-1 {
        fill: #556bff;
      }
    </style>
  </defs>
  <path id="Path_9714" data-name="Path 9714" class="cls-1" d="M38,23A14.994,14.994,0,0,1,16.127,36.329l-5.747,1.6a1.876,1.876,0,0,1-2.31-2.312l1.6-5.742A15,15,0,1,1,38,23ZM24.125,25.625a3.037,3.037,0,0,1,1.348-2.416A5.042,5.042,0,0,0,27.5,19.25a4.5,4.5,0,1,0-9,0,1.125,1.125,0,1,0,2.25,0,2.25,2.25,0,1,1,4.5,0c0,1.042-.451,1.51-1.314,2.317a5.142,5.142,0,0,0-2.061,4.058,1.125,1.125,0,1,0,2.25,0ZM23,28.25a1.5,1.5,0,1,0,1.5,1.5A1.5,1.5,0,0,0,23,28.25Zm0,0" transform="translate(-8 -8)"/>
</svg>
