<svg xmlns="http://www.w3.org/2000/svg" id="surface1903573" width="75.309" height="63.451" viewBox="0 0 75.309 63.451">
    <defs>
        <style>
            .cls-1{fill:#dad3ef}
        </style>
    </defs>
    <path id="Path_9695" d="M46.718 42.276a2.172 2.172 0 0 1-1.412 2.055C38.046 46.919 26.9 56.438 26.9 71.769c0 2.634.451 3.967 1.468 3.967 1.192 0 3.082-1.984 8.45-1.984a13.965 13.965 0 0 1 13.885 14 15.577 15.577 0 0 1-15.868 15.752c-8.2 0-19.836-6.115-19.836-23.987 0-24.751 18.639-35.256 28.627-39.3a2.236 2.236 0 0 1 3.092 2.059zm0 0" class="cls-1" transform="translate(24.605 -40.055)"/>
    <path id="Path_9696" d="M166.718 42.276a2.172 2.172 0 0 1-1.412 2.055c-7.26 2.588-18.405 12.107-18.405 27.438 0 2.634.451 3.967 1.468 3.967 1.192 0 3.082-1.984 8.45-1.984a13.965 13.965 0 0 1 13.885 14 15.577 15.577 0 0 1-15.868 15.752c-8.2 0-19.836-6.115-19.836-23.987 0-24.751 18.639-35.256 28.627-39.3a2.236 2.236 0 0 1 3.091 2.059zm0 0" class="cls-1" transform="translate(-135 -40.055)"/>
</svg>
