<svg xmlns="http://www.w3.org/2000/svg" width="279.938" height="213.21" viewBox="0 0 279.938 213.21">
  <defs>
    <style>
      .cls-1 {
        opacity: 0.666;
      }

      .cls-2 {
        fill: #f1f9ff;
      }
    </style>
  </defs>
  <g id="surface1903573" class="cls-1">
    <path id="Path_9695" data-name="Path 9695" class="cls-2" d="M28.393,245.8a7.3,7.3,0,0,1,4.744-6.9c24.4-8.7,61.846-40.684,61.846-92.2,0-8.852-1.515-13.33-4.931-13.33-4,0-10.357,6.665-28.395,6.665C39.734,140.032,15,122.557,15,92.986,15,67.1,34.407,40.055,68.321,40.055c27.562,0,66.652,20.548,66.652,80.6,0,83.169-62.632,118.468-96.192,132.043A7.512,7.512,0,0,1,28.393,245.8Zm0,0" transform="translate(-15 -40.055)"/>
    <path id="Path_9696" data-name="Path 9696" class="cls-2" d="M148.393,245.8a7.3,7.3,0,0,1,4.744-6.9c24.4-8.7,61.846-40.684,61.846-92.2,0-8.852-1.515-13.33-4.931-13.33-4,0-10.357,6.665-28.395,6.665-21.922,0-46.656-17.475-46.656-47.047,0-25.885,19.407-52.931,53.321-52.931,27.562,0,66.652,20.548,66.652,80.6,0,83.169-62.632,118.468-96.192,132.043A7.512,7.512,0,0,1,148.393,245.8Zm0,0" transform="translate(24.964 -40.055)"/>
  </g>
</svg>
