<svg xmlns="http://www.w3.org/2000/svg" width="184.372" height="140.474" viewBox="0 0 184.372 140.474">
    <path fill="#e8edff" d="M193.372 24H9v140.474h184.372zM92.406 138.135h17.559v17.559H92.406zm35.118 0h17.559v17.559h-17.558zm35.118 0H180.2v17.559h-17.557zm-105.355 0h17.56v17.559H57.288zm-35.118 0h17.56v17.559h-17.56zM92.406 32.78h17.559v17.559H92.406zm35.118 0h17.559v17.559h-17.558zm35.118 0H180.2v17.559h-17.557zm-105.355 0h17.56v17.559H57.288zm-35.118 0h17.56v17.559h-17.56zm0 0" transform="translate(-9 -24)"/>
    <path fill="#556bff" d="M63 54v52.678l43.9-24.052zm0 0" transform="translate(16.017 -10.102)"/>
</svg>
