<svg xmlns="http://www.w3.org/2000/svg" width="429" height="429" viewBox="0 0 429 429">
    <defs>
        <style>
            .cls-1 {
            fill: #ebebeb;
            }
        </style>
    </defs>
    <path id="Path_9766" data-name="Path 9766" class="cls-1"
          d="M817.6,532.864a214.5,214.5,0,0,0,2.335-281.952l-3.035,2.6c-4.93-11.066-9.641-26.171-10.3-37.743l-6.981,14.468A214.5,214.5,0,0,0,517.506,227.7l5.209,6.071a206.515,206.515,0,0,1,271.12,2.028L779.4,242.369c11.554.922,26.549,5.972,37.5,11.148l-3.036,2.606a206.511,206.511,0,0,1-1.827,270.965l-6.588-14.431c-.908,11.556-5.94,26.556-11.1,37.517l-2.609-3.031a206.513,206.513,0,0,1-270.809-1.353l14.417-6.621c-11.557-.882-26.569-5.88-37.542-11.018l3.026-2.616a206.511,206.511,0,0,1,1.557-271.74l6.567,14.441c.925-11.554,5.979-26.548,11.158-37.5-11.068,4.927-26.174,9.634-37.746,10.291l14.467,6.985a214.5,214.5,0,0,0-2.055,282.757l3.026-2.617c4.968,11.049,9.731,26.138,10.432,37.707l6.931-14.492a214.5,214.5,0,0,0,281.79,1.841l-2.609-3.032c11.06-4.944,26.159-9.673,37.73-10.347Z"
          transform="translate(-442.611 -176.056)"/>
</svg>
